<mxfile host="Electron" agent="Mozilla/5.0 (X11; Linux x86_64) AppleWebKit/537.36 (KHTML, like Gecko) draw.io/28.2.5 Chrome/138.0.7204.251 Electron/37.5.1 Safari/537.36" version="28.2.5">
  <diagram name="Borrow a Book" id="borrow-book">
    <mxGraphModel dx="922" dy="1782" grid="1" gridSize="10" guides="1" tooltips="1" connect="1" arrows="1" fold="1" page="1" pageScale="1" pageWidth="850" pageHeight="1100" math="0" shadow="0">
      <root>
        <mxCell id="0" />
        <mxCell id="1" parent="0" />
        <mxCell id="N0c3E38w2tILLf961pHr-1" value="alt" style="shape=umlFrame;whiteSpace=wrap;html=1;width=40;height=20;" vertex="1" parent="1">
          <mxGeometry x="25" y="-110" width="800" height="530" as="geometry" />
        </mxCell>
        <mxCell id="title2" value="Sequence Diagram: Borrow a Book" style="text;html=1;align=center;verticalAlign=middle;whiteSpace=wrap;rounded=0;fontSize=16;fontStyle=1;" parent="1" vertex="1">
          <mxGeometry x="275" y="-560" width="290" height="30" as="geometry" />
        </mxCell>
        <mxCell id="librarian2" value="Librarian" style="shape=umlLifeline;perimeter=lifelinePerimeter;whiteSpace=wrap;html=1;container=1;collapsible=0;recursiveResize=0;outlineConnect=0;" parent="1" vertex="1">
          <mxGeometry x="35" y="-510" width="100" height="900" as="geometry" />
        </mxCell>
        <mxCell id="application2" value="Application" style="shape=umlLifeline;perimeter=lifelinePerimeter;whiteSpace=wrap;html=1;container=1;collapsible=0;recursiveResize=0;outlineConnect=0;" parent="1" vertex="1">
          <mxGeometry x="195" y="-510" width="100" height="900" as="geometry" />
        </mxCell>
        <mxCell id="N0c3E38w2tILLf961pHr-4" value="failureMessage" style="html=1;verticalAlign=bottom;endArrow=open;dashed=1;endSize=8;rounded=0;" edge="1" parent="application2">
          <mxGeometry relative="1" as="geometry">
            <mxPoint x="45" y="510" as="sourcePoint" />
            <mxPoint x="-105" y="510" as="targetPoint" />
          </mxGeometry>
        </mxCell>
        <mxCell id="member2" value="Member" style="shape=umlLifeline;perimeter=lifelinePerimeter;whiteSpace=wrap;html=1;container=1;collapsible=0;recursiveResize=0;outlineConnect=0;" parent="1" vertex="1">
          <mxGeometry x="355" y="-510" width="100" height="900" as="geometry" />
        </mxCell>
        <mxCell id="N0c3E38w2tILLf961pHr-3" value="" style="endArrow=none;dashed=1;html=1;rounded=0;exitX=0;exitY=0.228;exitDx=0;exitDy=0;exitPerimeter=0;entryX=0.988;entryY=0.226;entryDx=0;entryDy=0;entryPerimeter=0;" edge="1" parent="member2">
          <mxGeometry width="50" height="50" relative="1" as="geometry">
            <mxPoint x="-330" y="561.06" as="sourcePoint" />
            <mxPoint x="460.4000000000001" y="560" as="targetPoint" />
          </mxGeometry>
        </mxCell>
        <mxCell id="loan2" value="Loan" style="shape=umlLifeline;perimeter=lifelinePerimeter;whiteSpace=wrap;html=1;container=1;collapsible=0;recursiveResize=0;outlineConnect=0;" parent="1" vertex="1">
          <mxGeometry x="675" y="90" width="100" height="300" as="geometry" />
        </mxCell>
        <mxCell id="book2" value="Book" style="shape=umlLifeline;perimeter=lifelinePerimeter;whiteSpace=wrap;html=1;container=1;collapsible=0;recursiveResize=0;outlineConnect=0;" parent="1" vertex="1">
          <mxGeometry x="515" y="-510" width="100" height="900" as="geometry" />
        </mxCell>
        <mxCell id="lib-activation2" value="" style="html=1;points=[];perimeter=orthogonalPerimeter;" parent="1" vertex="1">
          <mxGeometry x="80" y="-430" width="10" height="810" as="geometry" />
        </mxCell>
        <mxCell id="app-activation2" value="" style="html=1;points=[];perimeter=orthogonalPerimeter;" parent="1" vertex="1">
          <mxGeometry x="240" y="-410" width="10" height="790" as="geometry" />
        </mxCell>
        <mxCell id="member-activation4" value="" style="html=1;points=[];perimeter=orthogonalPerimeter;" parent="1" vertex="1">
          <mxGeometry x="400" y="-390" width="10" height="730" as="geometry" />
        </mxCell>
        <mxCell id="book-activation2" value="" style="html=1;points=[];perimeter=orthogonalPerimeter;" parent="1" vertex="1">
          <mxGeometry x="560" y="-160" width="10" height="380" as="geometry" />
        </mxCell>
        <mxCell id="msg2-1" value="selectBorrow()" style="html=1;verticalAlign=bottom;endArrow=block;rounded=0;" parent="1" edge="1">
          <mxGeometry width="80" relative="1" as="geometry">
            <mxPoint x="90" y="-410" as="sourcePoint" />
            <mxPoint x="240" y="-410" as="targetPoint" />
          </mxGeometry>
        </mxCell>
        <mxCell id="ref-frame2" value="ref" style="shape=umlFrame;whiteSpace=wrap;html=1;width=40;height=20;" parent="1" vertex="1">
          <mxGeometry x="215" y="-340" width="260" height="80" as="geometry" />
        </mxCell>
        <mxCell id="ref-label2" value="Check Overdue" style="text;html=1;align=center;verticalAlign=middle;resizable=0;points=[];autosize=1;fontStyle=1;fontSize=14;" parent="1" vertex="1">
          <mxGeometry x="275" y="-315" width="120" height="30" as="geometry" />
        </mxCell>
        <mxCell id="msg2-6" value="getStatus()" style="html=1;verticalAlign=bottom;endArrow=block;rounded=0;" parent="1" edge="1">
          <mxGeometry width="80" relative="1" as="geometry">
            <mxPoint x="250" y="-220" as="sourcePoint" />
            <mxPoint x="400" y="-220" as="targetPoint" />
          </mxGeometry>
        </mxCell>
        <mxCell id="msg2-7" value="status" style="html=1;verticalAlign=bottom;endArrow=open;dashed=1;endSize=8;rounded=0;" parent="1" edge="1">
          <mxGeometry relative="1" as="geometry">
            <mxPoint x="400" y="-190" as="sourcePoint" />
            <mxPoint x="250" y="-190" as="targetPoint" />
          </mxGeometry>
        </mxCell>
        <mxCell id="msg2-8" value="isAvailable()" style="html=1;verticalAlign=bottom;endArrow=block;rounded=0;" parent="1" edge="1">
          <mxGeometry width="80" relative="1" as="geometry">
            <mxPoint x="250" y="-160" as="sourcePoint" />
            <mxPoint x="560" y="-160" as="targetPoint" />
          </mxGeometry>
        </mxCell>
        <mxCell id="msg2-9" value="available" style="html=1;verticalAlign=bottom;endArrow=open;dashed=1;endSize=8;rounded=0;" parent="1" edge="1">
          <mxGeometry relative="1" as="geometry">
            <mxPoint x="560" y="-130" as="sourcePoint" />
            <mxPoint x="250" y="-130" as="targetPoint" />
          </mxGeometry>
        </mxCell>
        <mxCell id="msg2-10" value="create(loanDate, returnDate, memberId, bookId)" style="html=1;verticalAlign=bottom;endArrow=block;rounded=0;" parent="1" edge="1">
          <mxGeometry width="80" relative="1" as="geometry">
            <mxPoint x="250" y="110" as="sourcePoint" />
            <mxPoint x="675" y="110" as="targetPoint" />
          </mxGeometry>
        </mxCell>
        <mxCell id="msg2-11" value="loan" style="html=1;verticalAlign=bottom;endArrow=open;dashed=1;endSize=8;rounded=0;" parent="1" edge="1">
          <mxGeometry relative="1" as="geometry">
            <mxPoint x="720" y="150" as="sourcePoint" />
            <mxPoint x="250" y="150" as="targetPoint" />
          </mxGeometry>
        </mxCell>
        <mxCell id="msg2-12" value="setUnavailable()" style="html=1;verticalAlign=bottom;endArrow=block;rounded=0;" parent="1" edge="1">
          <mxGeometry width="80" relative="1" as="geometry">
            <mxPoint x="250" y="190" as="sourcePoint" />
            <mxPoint x="560" y="190" as="targetPoint" />
          </mxGeometry>
        </mxCell>
        <mxCell id="msg2-14" value="incrementNbBooksBorrowed()" style="html=1;verticalAlign=bottom;endArrow=block;rounded=0;" parent="1" edge="1">
          <mxGeometry width="80" relative="1" as="geometry">
            <mxPoint x="250" y="250" as="sourcePoint" />
            <mxPoint x="400" y="250" as="targetPoint" />
          </mxGeometry>
        </mxCell>
        <mxCell id="msg2-16" value="updateStatus()" style="html=1;verticalAlign=bottom;endArrow=block;rounded=0;" parent="1" edge="1">
          <mxGeometry width="80" relative="1" as="geometry">
            <mxPoint x="250" y="310" as="sourcePoint" />
            <mxPoint x="400" y="310" as="targetPoint" />
          </mxGeometry>
        </mxCell>
        <mxCell id="N0c3E38w2tILLf961pHr-2" value="[status == maxBorrow or&amp;nbsp;&lt;div&gt;status == suspended or notAvailable]&lt;/div&gt;" style="text;html=1;align=center;verticalAlign=middle;whiteSpace=wrap;rounded=0;" vertex="1" parent="1">
          <mxGeometry x="95" y="-100" width="145" height="30" as="geometry" />
        </mxCell>
        <mxCell id="bC0v0ZND96sAY8QtFjxU-1" value="successMessage" style="html=1;verticalAlign=bottom;endArrow=open;dashed=1;endSize=8;rounded=0;" edge="1" parent="1">
          <mxGeometry relative="1" as="geometry">
            <mxPoint x="240" y="370" as="sourcePoint" />
            <mxPoint x="90" y="370" as="targetPoint" />
          </mxGeometry>
        </mxCell>
        <mxCell id="_z3P5x78icVbQlZ_uJC_-1" value="loop" style="shape=umlFrame;whiteSpace=wrap;html=1;width=40;height=20;" vertex="1" parent="1">
          <mxGeometry x="122.5" y="-870" width="565" height="250" as="geometry" />
        </mxCell>
        <mxCell id="_z3P5x78icVbQlZ_uJC_-2" value="Sequence Diagram: Check Overdue" style="text;html=1;align=center;verticalAlign=middle;whiteSpace=wrap;rounded=0;fontSize=16;fontStyle=1" vertex="1" parent="1">
          <mxGeometry x="280" y="-1080" width="290" height="30" as="geometry" />
        </mxCell>
        <mxCell id="_z3P5x78icVbQlZ_uJC_-3" value=":Application" style="shape=umlLifeline;perimeter=lifelinePerimeter;whiteSpace=wrap;html=1;container=1;collapsible=0;recursiveResize=0;outlineConnect=0;" vertex="1" parent="1">
          <mxGeometry x="137.5" y="-1030" width="100" height="440" as="geometry" />
        </mxCell>
        <mxCell id="_z3P5x78icVbQlZ_uJC_-4" value=":Member" style="shape=umlLifeline;perimeter=lifelinePerimeter;whiteSpace=wrap;html=1;container=1;collapsible=0;recursiveResize=0;outlineConnect=0;" vertex="1" parent="1">
          <mxGeometry x="357.5" y="-1030" width="100" height="440" as="geometry" />
        </mxCell>
        <mxCell id="_z3P5x78icVbQlZ_uJC_-5" value=":Loan" style="shape=umlLifeline;perimeter=lifelinePerimeter;whiteSpace=wrap;html=1;container=1;collapsible=0;recursiveResize=0;outlineConnect=0;" vertex="1" parent="1">
          <mxGeometry x="577.5" y="-1030" width="100" height="440" as="geometry" />
        </mxCell>
        <mxCell id="_z3P5x78icVbQlZ_uJC_-6" value="" style="html=1;points=[];perimeter=orthogonalPerimeter;" vertex="1" parent="1">
          <mxGeometry x="182.5" y="-950" width="10" height="320" as="geometry" />
        </mxCell>
        <mxCell id="_z3P5x78icVbQlZ_uJC_-7" value="" style="html=1;points=[];perimeter=orthogonalPerimeter;" vertex="1" parent="1">
          <mxGeometry x="402.5" y="-910" width="10" height="300" as="geometry" />
        </mxCell>
        <mxCell id="_z3P5x78icVbQlZ_uJC_-8" value="" style="html=1;points=[];perimeter=orthogonalPerimeter;" vertex="1" parent="1">
          <mxGeometry x="622.5" y="-860" width="10" height="110" as="geometry" />
        </mxCell>
        <mxCell id="_z3P5x78icVbQlZ_uJC_-9" value="getLoans()" style="html=1;verticalAlign=bottom;endArrow=block;rounded=0;" edge="1" parent="1">
          <mxGeometry width="80" relative="1" as="geometry">
            <mxPoint x="192.5" y="-910" as="sourcePoint" />
            <mxPoint x="402.5" y="-910" as="targetPoint" />
          </mxGeometry>
        </mxCell>
        <mxCell id="_z3P5x78icVbQlZ_uJC_-10" value="loans" style="html=1;verticalAlign=bottom;endArrow=open;dashed=1;endSize=8;rounded=0;" edge="1" parent="1">
          <mxGeometry relative="1" as="geometry">
            <mxPoint x="402.5" y="-880" as="sourcePoint" />
            <mxPoint x="192.5" y="-880" as="targetPoint" />
          </mxGeometry>
        </mxCell>
        <mxCell id="_z3P5x78icVbQlZ_uJC_-11" value="opt" style="shape=umlFrame;whiteSpace=wrap;html=1;width=50;height=20;" vertex="1" parent="1">
          <mxGeometry x="147.5" y="-780" width="510" height="110" as="geometry" />
        </mxCell>
        <mxCell id="_z3P5x78icVbQlZ_uJC_-12" value="[for each loan]" style="text;html=1;align=left;verticalAlign=middle;resizable=0;points=[];autosize=1;fontStyle=2" vertex="1" parent="1">
          <mxGeometry x="217.5" y="-850" width="100" height="30" as="geometry" />
        </mxCell>
        <mxCell id="_z3P5x78icVbQlZ_uJC_-13" value="isReturnDateOverdue()" style="html=1;verticalAlign=bottom;endArrow=block;rounded=0;" edge="1" parent="1">
          <mxGeometry width="80" relative="1" as="geometry">
            <mxPoint x="192.5" y="-810" as="sourcePoint" />
            <mxPoint x="622.5" y="-810" as="targetPoint" />
          </mxGeometry>
        </mxCell>
        <mxCell id="_z3P5x78icVbQlZ_uJC_-14" value="isOverdue" style="html=1;verticalAlign=bottom;endArrow=open;dashed=1;endSize=8;rounded=0;" edge="1" parent="1">
          <mxGeometry relative="1" as="geometry">
            <mxPoint x="622.5" y="-790" as="sourcePoint" />
            <mxPoint x="192.5" y="-790" as="targetPoint" />
          </mxGeometry>
        </mxCell>
        <mxCell id="_z3P5x78icVbQlZ_uJC_-15" value="[isOverdue]" style="text;html=1;align=left;verticalAlign=middle;resizable=0;points=[];autosize=1;fontStyle=0" vertex="1" parent="1">
          <mxGeometry x="227.5" y="-770" width="80" height="30" as="geometry" />
        </mxCell>
        <mxCell id="_z3P5x78icVbQlZ_uJC_-16" value="setStatus(SUSPENDED)" style="html=1;verticalAlign=bottom;endArrow=block;rounded=0;" edge="1" parent="1">
          <mxGeometry width="80" relative="1" as="geometry">
            <mxPoint x="192.5" y="-690" as="sourcePoint" />
            <mxPoint x="402.5" y="-690" as="targetPoint" />
          </mxGeometry>
        </mxCell>
      </root>
    </mxGraphModel>
  </diagram>
</mxfile>
